<?xml version="1.0" standalone="no"?>
<!DOCTYPE svg PUBLIC "-//W3C//DTD SVG 20010904//EN"
 "http://www.w3.org/TR/2001/REC-SVG-20010904/DTD/svg10.dtd">
<svg version="1.0" xmlns="http://www.w3.org/2000/svg"
 width="512.000000pt" height="512.000000pt" viewBox="0 0 512.000000 512.000000"
 preserveAspectRatio="xMidYMid meet">

<g transform="translate(0.000000,512.000000) scale(0.100000,-0.100000)"
fill="#000000" stroke="none">
<path d="M2483 5085 l-34 -34 3 -182 3 -181 28 -24 c41 -35 99 -33 138 5 l29
29 0 171 c0 185 -6 213 -51 237 -46 23 -78 17 -116 -21z"/>
<path d="M3611 5106 c-45 -25 -50 -49 -51 -234 l0 -174 29 -29 c41 -41 101
-41 142 0 l29 29 0 171 c0 110 -4 179 -12 196 -22 48 -88 68 -137 41z"/>
<path d="M1946 4875 c-42 -22 -55 -44 -56 -94 0 -42 3 -46 123 -166 131 -131
155 -145 214 -120 41 17 69 71 59 111 -9 36 -219 251 -263 270 -40 17 -41 17
-77 -1z"/>
<path d="M4185 4876 c-16 -8 -82 -66 -145 -130 -111 -112 -115 -118 -115 -160
0 -48 16 -73 60 -92 54 -22 76 -9 209 125 107 109 126 132 126 159 0 46 -19
79 -55 97 -39 18 -42 18 -80 1z"/>
<path d="M3162 4419 c-61 -12 -139 -57 -180 -105 l-36 -41 -59 31 c-114 59
-262 33 -354 -62 -55 -58 -137 -207 -137 -250 0 -76 112 -123 163 -69 12 12
43 58 69 102 67 114 131 140 197 80 l25 -24 -114 -233 c-62 -128 -198 -406
-300 -618 l-187 -385 -148 -148 -148 -149 3 161 3 160 91 157 c102 179 109
206 61 255 -22 21 -39 29 -66 29 -55 0 -71 -13 -121 -100 l-47 -80 -59 65
c-82 89 -194 146 -302 153 -67 4 -82 2 -130 -22 -50 -24 -91 -62 -114 -102 -7
-12 -18 -10 -72 12 -51 21 -87 28 -167 32 -90 4 -106 2 -147 -18 -64 -30 -123
-101 -143 -169 -16 -55 -15 -60 28 -346 59 -389 60 -515 5 -880 -21 -137 -40
-293 -43 -345 -9 -164 27 -370 90 -514 26 -59 32 -84 32 -148 l0 -77 -163
-326 c-89 -179 -162 -337 -162 -351 0 -16 13 -39 34 -60 l34 -34 748 0 749 0
145 63 c540 235 927 524 1244 931 75 96 694 1003 727 1067 33 62 34 202 2 271
-25 55 -95 128 -141 149 -18 8 -30 19 -27 26 2 7 59 87 125 177 148 203 170
246 170 342 0 39 -7 91 -16 117 -18 54 -79 126 -132 158 -20 12 -39 24 -41 26
-2 2 10 23 28 48 53 73 74 133 75 205 1 90 -23 148 -86 205 -114 103 -282 109
-399 15 l-36 -28 -43 50 c-43 50 -124 98 -166 98 -32 0 -33 7 -12 68 58 162
-7 330 -155 401 -70 33 -132 43 -195 30z m118 -216 c71 -49 71 -75 5 -239
l-55 -139 -270 -270 c-263 -262 -270 -268 -246 -214 66 152 428 859 443 868
28 16 96 13 123 -6z m225 -487 c36 -15 65 -59 65 -98 0 -13 -9 -36 -19 -53
-10 -16 -233 -277 -496 -580 -586 -674 -555 -636 -555 -686 0 -66 64 -112 127
-92 19 7 216 227 646 724 669 772 656 759 726 729 44 -18 66 -62 52 -102 -6
-17 -286 -396 -621 -842 -584 -778 -610 -813 -610 -854 0 -58 33 -92 89 -92
22 0 47 3 56 6 10 4 246 312 526 686 281 373 516 681 524 684 8 3 30 0 50 -6
45 -15 75 -61 75 -115 0 -37 -41 -96 -545 -787 -313 -428 -548 -759 -551 -776
-7 -34 16 -86 45 -102 28 -15 83 -12 108 5 11 8 175 227 364 486 l344 471 35
-6 c50 -8 91 -54 97 -108 5 -44 3 -49 -143 -264 -536 -793 -594 -872 -769
-1053 -265 -274 -620 -506 -1008 -660 l-78 -31 -619 0 c-341 0 -620 2 -620 5
0 3 51 108 114 234 63 126 122 257 132 292 24 95 21 223 -9 347 -46 186 -45
359 3 537 10 39 68 185 129 327 171 399 194 487 241 904 32 291 36 304 95 304
44 0 128 -44 166 -88 47 -53 67 -106 80 -212 23 -192 -13 -389 -106 -576 -31
-63 -55 -124 -55 -142 0 -46 36 -82 88 -89 l44 -6 836 836 c460 460 848 840
862 846 35 14 46 13 85 -3z m-2362 -676 c85 -42 82 -31 57 -257 -24 -215 -57
-362 -115 -518 -72 -191 -70 -192 -71 33 -1 179 -4 221 -42 461 -42 263 -42
290 -10 305 30 13 135 -1 181 -24z"/>
<path d="M1701 4299 c-52 -49 -46 -124 13 -160 27 -16 51 -19 184 -19 171 0
200 8 228 62 13 26 14 38 5 69 -19 64 -37 69 -234 69 -162 0 -175 -1 -196 -21z"/>
<path d="M4108 4297 c-35 -32 -44 -77 -23 -116 29 -57 55 -63 260 -59 178 3
184 4 209 27 48 45 40 132 -13 161 -12 6 -100 10 -214 10 -190 0 -195 -1 -219
-23z"/>
<path d="M2196 3669 c-44 -52 -30 -125 31 -154 84 -40 172 50 129 133 -20 39
-44 52 -94 52 -33 0 -45 -6 -66 -31z"/>
</g>
</svg>
